<?xml version="1.0" standalone="no"?><svg width="5400" height="5400" xmlns="http://www.w3.org/2000/svg" xmlns:xlink="http://www.w3.org/1999/xlink"><style>body { font-family: sans-serif; padding: 0px; margin: 0px; }line.bg { stroke: rgba(3, 148, 172, 0.7); stroke-width: 1; }circle.bg { fill: rgba(100, 220, 240, 0.7); }line.bg-sub { stroke: rgba(140, 240, 240, 0.5); stroke-width: 1; }rect, path, circle { fill: none; stroke-width: 2; stroke-linejoin: round; }pattern line { vector-effect: non-scaling-stroke; }.zoomed-out pattern line { vector-effect: none; }text { stroke-width: 0; font-family: sans-serif; }text tspan { vector-effect: non-scaling-stroke; white-space: pre; }.ui-dark { background: rgb(51, 51, 51); }.ui-dark line.bg { stroke: rgba(172, 232, 242, 0.57); stroke-width: 1; }.ui-dark circle.bg { fill: rgba(100, 220, 240, 0.3); }.ui-dark line.bg-sub { stroke: rgba(140, 240, 240, 0.1); stroke-width: 1; }rect.marquee { fill: rgba(234, 255, 231, 0.3); stroke: rgb(98, 137, 95); stroke-width: 1; stroke-dasharray: 4; vector-effect: non-scaling-stroke; }rect.highlight { fill: blue; opacity: 0.5; }.bg rect { stroke: rgba(3, 148, 172, 0.7); stroke-width: 1; }</style><defs class="ic"></defs><g transform="translate(2700, 2700)"><defs><pattern id="pattern_bg" viewBox="0 0 60 60" width="0.043258832011535686" height="0.07272727272727272" patternTransform="scale(0.06921927391756118 0.06921927391756118) translate(15333.095651471922 9211.31565730837)"><line class="bg" x1="0" y1="0" x2="60" y2="0"></line><line class="bg" x1="0" y1="0" y2="60" x2="0"></line></pattern></defs><g class="bg" style="visibility: hidden;"><rect x="-15333.095651471922" y="-9211.31565730837" width="20037.771584427344" height="11918.645679273654" style="fill: url(&quot;#pattern_bg&quot;);"></rect></g><g class="u current" data-layer="Layer 1" style="visibility: visible;"><path d="M -1800 -1800 L -1800 1800 L 1800 1800 L 1800 -1800 Z" class="" stroke="rgba(0, 0, 0, 1)" style="fill: rgba(0, 0, 0, 0); stroke-width: 10; stroke-linejoin: round;" data-xi=""></path><rect x="585" y="585" class="" style="stroke: rgb(0, 0, 0); fill: rgba(0, 0, 0, 0); stroke-width: 10; stroke-linejoin: round;" width="30" height="30" data-xi=""></rect><path d="M -30 -180 L -60 -180" class="" stroke="rgba(0, 0, 0, 1)" style="fill: rgba(0, 0, 0, 0); stroke-width: 10; stroke-linejoin: round;" data-xi=""></path><path d="M 30 -180 L 60 -180" class="" stroke="rgba(0, 0, 0, 1)" style="fill: rgba(0, 0, 0, 0); stroke-width: 10; stroke-linejoin: round;" data-xi=""></path><path d="M 60 -180 L 60 -540" class="" stroke="rgba(0, 0, 0, 1)" style="fill: rgba(0, 0, 0, 0); stroke-width: 10; stroke-linejoin: round;" data-xi=""></path><path d="M -60 -180 L -60 -540" class="" stroke="rgba(0, 0, 0, 1)" style="fill: rgba(0, 0, 0, 0); stroke-width: 10; stroke-linejoin: round;" data-xi=""></path><path d="M -60 -540 L -360 -540 L -360 -720 L -360 -750" class="" stroke="rgba(0, 0, 0, 1)" style="fill: rgba(0, 0, 0, 0); stroke-width: 10; stroke-linejoin: round;" data-xi=""></path><path d="M -360 -810 L -360 -1020 L 360 -1020" class="" stroke="rgba(0, 0, 0, 1)" style="fill: rgba(0, 0, 0, 0); stroke-width: 10; stroke-linejoin: round;" data-xi=""></path><path d="M 360 -1020 L 360 -810" class="" stroke="rgba(0, 0, 0, 1)" style="fill: rgba(0, 0, 0, 0); stroke-width: 10; stroke-linejoin: round;" data-xi=""></path><path d="M 360 -750 L 360 -540" class="" stroke="rgba(0, 0, 0, 1)" style="fill: rgba(0, 0, 0, 0); stroke-width: 10; stroke-linejoin: round;" data-xi=""></path><path d="M 360 -540 L 75 -540 L 60 -540" class="" stroke="rgba(0, 0, 0, 1)" style="fill: rgba(0, 0, 0, 0); stroke-width: 10; stroke-linejoin: round;" data-xi=""></path><path d="M 360 -1020 L 360 -1320" class="" stroke="rgba(0, 0, 0, 1)" style="fill: rgba(0, 0, 0, 0); stroke-width: 10; stroke-linejoin: round;" data-xi=""></path><path d="M 360 -1320 L 1260 -1320 L 1260 -300 L 360 -300 L 360 -540" class="" stroke="rgba(0, 0, 0, 1)" style="fill: rgba(0, 0, 0, 0); stroke-width: 10; stroke-linejoin: round;" data-xi=""></path><path d="M -360 -840 L -720 -840 L -720 -1200 L -360 -1200 L -360 -1095" class="" stroke="rgba(0, 0, 0, 1)" style="fill: rgba(0, 0, 0, 0); stroke-width: 10; stroke-linejoin: round;" data-xi=""></path><path d="M -360 -1095 L -360 -1080" class="" stroke="rgba(0, 0, 0, 1)" style="fill: rgba(0, 0, 0, 0); stroke-width: 10; stroke-linejoin: round;" data-xi=""></path><path d="M -360 -1230 L -360 -1200 L -360 -1215" class="" stroke="rgba(0, 0, 0, 1)" style="fill: rgba(0, 0, 0, 0); stroke-width: 10; stroke-linejoin: round;" data-xi=""></path><path d="M -360 -1290 L -360 -1320" class="" stroke="rgba(0, 0, 0, 1)" style="fill: rgba(0, 0, 0, 0); stroke-width: 10; stroke-linejoin: round;" data-xi=""></path><path d="M -360 -1320 L -510 -1320" class="" stroke="rgba(0, 0, 0, 1)" style="fill: rgba(0, 0, 0, 0); stroke-width: 10; stroke-linejoin: round;" data-xi=""></path><path d="M -570 -1320 L -840 -1320 L -840 -720 L -360 -720" class="" stroke="rgba(0, 0, 0, 1)" style="fill: rgba(0, 0, 0, 0); stroke-width: 10; stroke-linejoin: round;" data-xi=""></path><path d="M -360 -1320 L -360 -1500" class="" stroke="rgba(0, 0, 0, 1)" style="fill: rgba(0, 0, 0, 0); stroke-width: 10; stroke-linejoin: round;" data-xi=""></path><path d="M -360 -1560 L -360 -1680 L 360 -1680 L 360 -1320" class="" stroke="rgba(0, 0, 0, 1)" style="fill: rgba(0, 0, 0, 0); stroke-width: 10; stroke-linejoin: round;" data-xi=""></path><path d="M 360 -1530 L 360 -1470" class="ants" style="fill: rgba(0, 0, 0, 0); stroke: rgba(0, 0, 0, 0.5); stroke-width: 10; stroke-linejoin: round;" data-xi=""></path><path d="M 360 -1590 L 360 -1530" class="" stroke="rgba(255, 255, 255, 1)" style="fill: rgba(0, 0, 0, 0); stroke-width: 10; stroke-linejoin: round;" data-xi=""></path><path d="M -360 -1560 L -360 -1500" class="" stroke="rgba(255, 255, 255, 1)" style="fill: rgba(0, 0, 0, 0); stroke-width: 10; stroke-linejoin: round;" data-xi=""></path><path d="M -570 -1320 L -510 -1320" class="" stroke="rgba(255, 255, 255, 1)" style="fill: rgba(0, 0, 0, 0); stroke-width: 10; stroke-linejoin: round;" data-xi=""></path><path d="M -360 -1290 L -360 -1230" class="" stroke="rgba(255, 255, 255, 1)" style="fill: rgba(0, 0, 0, 0); stroke-width: 10; stroke-linejoin: round;" data-xi=""></path><path d="M -360 -810 L -360 -750" class="" stroke="rgba(255, 255, 255, 1)" style="fill: rgba(0, 0, 0, 0); stroke-width: 10; stroke-linejoin: round;" data-xi=""></path><path d="M -60 -540 L 60 -540" class="" stroke="rgba(255, 255, 255, 1)" style="fill: rgba(0, 0, 0, 0); stroke-width: 10; stroke-linejoin: round;" data-xi=""></path><path d="M 360 -750 L 360 -810" class="" stroke="rgba(255, 255, 255, 1)" style="fill: rgba(0, 0, 0, 0); stroke-width: 10; stroke-linejoin: round;" data-xi=""></path><path d="M 780 -1320 L 840 -1320" class="" stroke="rgba(255, 255, 255, 1)" style="fill: rgba(0, 0, 0, 0); stroke-width: 10; stroke-linejoin: round;" data-xi=""></path><path d="M 1260 -1320 L 1380 -1320 L 1380 -1680 L 360 -1680" class="" stroke="rgba(0, 0, 0, 1)" style="fill: rgba(0, 0, 0, 0); stroke-width: 10; stroke-linejoin: round;" data-xi=""></path><path d="M -840 -1320 L -1080 -1320 L -1080 -1680 L -360 -1680" class="" stroke="rgba(0, 0, 0, 1)" style="fill: rgba(0, 0, 0, 0); stroke-width: 10; stroke-linejoin: round;" data-xi=""></path><path d="M -30 -180 L 30 -180" class="" stroke="rgba(255, 255, 255, 1)" style="fill: rgba(0, 0, 0, 0); stroke-width: 10; stroke-linejoin: round;" data-xi=""></path><path d="M -360 -1080 L -360 -1020" class="" stroke="rgba(255, 255, 255, 1)" style="fill: rgba(0, 0, 0, 0); stroke-width: 10; stroke-linejoin: round;" data-xi=""></path><path d="M 1380 -1680 L 1380 -1320" class="" stroke="rgba(255, 255, 255, 1)" style="fill: rgba(0, 0, 0, 0); stroke-width: 10; stroke-linejoin: round;" data-xi=""></path><path d="M 1380 -1680 L 1500 -1680 L 1500 -1320 L 1380 -1320" class="" stroke="rgba(0, 0, 0, 1)" style="fill: rgba(0, 0, 0, 0); stroke-width: 10; stroke-linejoin: round;" data-xi=""></path></g></g></svg>